<?xml version="1.0" encoding="UTF-8"?>
<svg xmlns="http://www.w3.org/2000/svg" xmlns:xlink="http://www.w3.org/1999/xlink" width="48px" height="48px" viewBox="0 0 48 48" version="1.1">
<g id="surface1">
<path style=" stroke:none;fill-rule:nonzero;fill:rgb(19.215687%,47.058824%,77.64706%);fill-opacity:1;" d="M 3.1875 0.214844 C 1.667969 0.730469 0.609375 1.835938 0.148438 3.367188 C 0.0195312 3.835938 0 5.765625 0 24.007812 C 0 43.753906 0 44.148438 0.1875 44.726562 C 0.636719 46.199219 1.800781 47.363281 3.261719 47.8125 C 3.851562 48 4.179688 48 24 48 C 43.753906 48 44.148438 48 44.726562 47.8125 C 46.199219 47.363281 47.363281 46.199219 47.8125 44.738281 C 48 44.148438 48 43.820312 48 24 C 48 4.179688 48 3.851562 47.8125 3.261719 C 47.464844 2.128906 46.554688 1.023438 45.5625 0.515625 C 44.476562 -0.0390625 45.992188 0 23.960938 0 L 3.796875 0.0078125 Z M 41.34375 22.574219 C 41.832031 22.679688 42.449219 22.847656 42.703125 22.941406 L 43.171875 23.117188 L 43.199219 25.292969 C 43.210938 26.492188 43.199219 27.46875 43.171875 27.46875 C 43.144531 27.46875 42.722656 27.28125 42.242188 27.046875 C 40.902344 26.390625 39.789062 26.136719 38.25 26.117188 C 36.835938 26.109375 36.261719 26.230469 35.511719 26.710938 C 34.460938 27.375 34.40625 28.742188 35.390625 29.617188 C 35.960938 30.113281 36.441406 30.375 38.34375 31.238281 C 40.714844 32.316406 41.492188 32.773438 42.421875 33.703125 C 43.6875 34.949219 44.109375 36.113281 44.035156 38.109375 C 44.007812 39.039062 43.949219 39.355469 43.734375 39.9375 C 43.078125 41.71875 41.867188 42.835938 39.871094 43.5 C 38.492188 43.960938 37.378906 44.089844 35.203125 44.035156 C 33.09375 43.988281 31.960938 43.800781 30.5625 43.285156 L 29.765625 42.984375 L 29.738281 40.574219 L 29.71875 38.15625 L 30.207031 38.53125 C 32.550781 40.3125 36.308594 40.847656 38.175781 39.664062 C 38.773438 39.28125 39.039062 38.773438 38.980469 38.054688 C 38.898438 36.863281 37.988281 36.148438 34.875 34.828125 C 33.074219 34.070312 32.25 33.5625 31.304688 32.625 C 30.429688 31.761719 30.039062 31.097656 29.765625 30.046875 C 29.585938 29.335938 29.585938 27.789062 29.765625 27.019531 C 30.335938 24.589844 32.539062 22.929688 35.859375 22.414062 C 36.84375 22.257812 40.320312 22.359375 41.34375 22.574219 Z M 27.84375 24.703125 L 27.84375 26.625 L 21.84375 26.625 L 21.84375 43.78125 L 17.0625 43.78125 L 17.042969 35.222656 L 17.015625 26.671875 L 14.042969 26.644531 L 11.0625 26.625 L 11.0625 22.78125 L 27.84375 22.78125 Z M 27.84375 24.703125 "/>
</g>
</svg>
