<?xml version="1.0" encoding="UTF-8"?>
<svg xmlns="http://www.w3.org/2000/svg" xmlns:xlink="http://www.w3.org/1999/xlink" width="48px" height="48px" viewBox="0 0 48 48" version="1.1">
<defs>
<filter id="alpha" filterUnits="objectBoundingBox" x="0%" y="0%" width="100%" height="100%">
  <feColorMatrix type="matrix" in="SourceGraphic" values="0 0 0 0 1 0 0 0 0 1 0 0 0 0 1 0 0 0 1 0"/>
</filter>
<mask id="mask0">
  <g filter="url(#alpha)">
<rect x="0" y="0" width="48" height="48" style="fill:rgb(0%,0%,0%);fill-opacity:0.101961;stroke:none;"/>
  </g>
</mask>
<clipPath id="clip1">
  <rect x="0" y="0" width="48" height="48"/>
</clipPath>
<g id="surface5" clip-path="url(#clip1)">
<path style=" stroke:none;fill-rule:nonzero;fill:rgb(100%,100%,100%);fill-opacity:1;" d="M 7.363281 6.75 C 0.71875 12.671875 -2.105469 21.789062 0.0351562 30.433594 C 2.175781 39.078125 8.921875 45.824219 17.566406 47.964844 C 26.210938 50.105469 35.328125 47.28125 41.25 40.636719 Z M 7.363281 6.75 "/>
</g>
</defs>
<g id="surface1">
<path style=" stroke:none;fill-rule:nonzero;fill:rgb(36.078432%,17.647059%,56.862748%);fill-opacity:1;" d="M 48 24 C 48 10.746094 37.253906 0 24 0 C 10.746094 0 0 10.746094 0 24 C 0 37.253906 10.746094 48 24 48 C 37.253906 48 48 37.253906 48 24 Z M 48 24 "/>
<use xlink:href="#surface5" mask="url(#mask0)"/>
<path style=" stroke:none;fill-rule:nonzero;fill:rgb(100%,100%,100%);fill-opacity:1;" d="M 5.550781 30.9375 C 5.265625 30.941406 4.996094 30.828125 4.800781 30.621094 C 4.601562 30.425781 4.488281 30.152344 4.492188 29.871094 C 4.492188 29.589844 4.601562 29.320312 4.800781 29.121094 C 4.992188 28.914062 5.265625 28.796875 5.550781 28.800781 C 5.832031 28.800781 6.105469 28.917969 6.300781 29.121094 C 6.503906 29.320312 6.617188 29.589844 6.613281 29.871094 C 6.617188 30.15625 6.503906 30.425781 6.300781 30.621094 C 6.101562 30.824219 5.832031 30.9375 5.550781 30.9375 Z M 5.550781 30.9375 "/>
<path style=" stroke:none;fill-rule:nonzero;fill:rgb(100%,100%,100%);fill-opacity:1;" d="M 20.453125 30.75 L 18.488281 30.75 L 11.460938 19.84375 C 11.285156 19.574219 11.140625 19.289062 11.023438 18.988281 L 10.964844 18.988281 C 11.03125 19.613281 11.058594 20.238281 11.039062 20.863281 L 11.039062 30.75 L 9.441406 30.75 L 9.441406 17.078125 L 11.519531 17.078125 L 18.359375 27.789062 C 18.644531 28.234375 18.828125 28.539062 18.914062 28.703125 L 18.953125 28.703125 C 18.875 28.035156 18.839844 27.363281 18.855469 26.691406 L 18.855469 17.078125 L 20.453125 17.078125 Z M 20.453125 30.75 "/>
<path style=" stroke:none;fill-rule:nonzero;fill:rgb(100%,100%,100%);fill-opacity:1;" d="M 31.265625 30.75 L 24 30.75 L 24 17.078125 L 30.929688 17.078125 L 30.929688 18.523438 L 25.636719 18.523438 L 25.636719 23.070312 L 30.570312 23.070312 L 30.570312 24.511719 L 25.636719 24.511719 L 25.636719 29.25 L 31.273438 29.25 Z M 31.265625 30.75 "/>
<path style=" stroke:none;fill-rule:nonzero;fill:rgb(100%,100%,100%);fill-opacity:1;" d="M 42 18.523438 L 38.023438 18.523438 L 38.023438 30.75 L 36.425781 30.75 L 36.425781 18.523438 L 32.496094 18.523438 L 32.496094 17.078125 L 42 17.078125 Z M 42 18.523438 "/>
</g>
</svg>
