<?xml version="1.0" encoding="UTF-8"?>
<svg xmlns="http://www.w3.org/2000/svg" xmlns:xlink="http://www.w3.org/1999/xlink" width="48px" height="48px" viewBox="0 0 48 48" version="1.1">
<g id="surface1">
<path style=" stroke:none;fill-rule:nonzero;fill:rgb(0%,38.039216%,54.11765%);fill-opacity:1;" d="M 0 43.601562 L 1.582031 43.601562 L 1.582031 31.585938 L 4.03125 42.066406 C 4.316406 43.328125 4.714844 43.78125 5.488281 43.78125 C 6.265625 43.78125 6.644531 43.332031 6.933594 42.066406 L 9.382812 31.585938 L 9.382812 43.605469 L 10.964844 43.605469 L 10.964844 31.605469 C 10.964844 30.4375 10.71875 29.871094 10.21875 29.578125 C 9.015625 28.855469 8.210938 29.480469 7.847656 31.039062 L 5.445312 41.382812 L 3.117188 31.035156 C 2.765625 29.476562 1.945312 28.851562 0.746094 29.574219 C 0.242188 29.867188 0 30.433594 0 31.601562 Z M 12.277344 33.820312 L 13.859375 33.820312 L 13.859375 40.441406 C 13.84375 40.800781 13.917969 41.644531 14.785156 41.671875 C 15.226562 41.683594 18.195312 41.671875 18.222656 41.671875 L 18.222656 33.785156 L 19.808594 33.785156 C 19.816406 33.785156 19.804688 44.539062 19.808594 44.585938 C 19.816406 47.234375 18.097656 47.8125 17.304688 47.855469 L 12.3125 47.855469 L 12.3125 45.808594 L 17.3125 45.808594 C 18.332031 45.601562 18.210938 44.628906 18.210938 44.300781 L 18.210938 43.5 L 14.851562 43.5 C 13.289062 43.472656 12.292969 42.160156 12.28125 40.648438 C 12.277344 40.511719 12.3125 33.882812 12.277344 33.820312 Z M 12.277344 33.820312 "/>
<path style=" stroke:none;fill-rule:nonzero;fill:rgb(89.411765%,55.686277%,0%);fill-opacity:1;" d="M 21.027344 43.601562 L 25.574219 43.601562 C 26.105469 43.601562 26.621094 43.386719 27.035156 43.015625 C 27.71875 42.410156 28.050781 41.59375 28.050781 40.519531 L 28.050781 38.296875 C 28.050781 37.417969 27.671875 36.597656 26.925781 36.050781 C 26.53125 35.757812 26.046875 35.601562 25.574219 35.601562 L 23.660156 35.601562 C 23.019531 35.601562 22.714844 35.230469 22.640625 34.414062 C 22.625 34.316406 22.625 34.230469 22.625 34.140625 L 22.625 32.753906 C 22.625 32.675781 22.625 32.597656 22.640625 32.5 C 22.714844 31.875 22.882812 31.699219 23.445312 31.597656 C 23.492188 31.597656 23.550781 31.578125 23.597656 31.578125 L 28.113281 31.578125 L 28.113281 29.550781 L 23.671875 29.550781 C 23.035156 29.550781 22.699219 29.628906 22.394531 29.800781 C 21.453125 30.367188 21.042969 31.269531 21.042969 32.832031 L 21.042969 34.609375 C 21.042969 35.972656 21.847656 37.144531 23.203125 37.417969 C 23.355469 37.4375 23.503906 37.457031 23.65625 37.457031 L 25.300781 37.457031 C 25.359375 37.457031 25.421875 37.457031 25.46875 37.476562 C 25.96875 37.554688 26.183594 37.730469 26.332031 38.082031 C 26.425781 38.261719 26.457031 38.433594 26.457031 38.621094 L 26.457031 40.398438 C 26.457031 40.613281 26.378906 40.886719 26.226562 41.121094 C 26.089844 41.355469 25.863281 41.507812 25.558594 41.546875 C 25.496094 41.546875 25.453125 41.566406 25.390625 41.566406 L 21.027344 41.566406 Z M 37.917969 40.070312 C 37.917969 42.160156 38.722656 43.328125 40.351562 43.5625 C 40.5 43.585938 40.652344 43.597656 40.804688 43.601562 L 44.925781 43.601562 L 44.925781 41.574219 L 40.777344 41.574219 C 39.847656 41.574219 39.5 41.125 39.5 40.050781 L 39.5 29.554688 L 37.917969 29.554688 Z M 29.0625 40.175781 L 29.0625 32.941406 C 29.0625 31.105469 29.730469 29.988281 31.058594 29.636719 C 31.199219 29.597656 31.339844 29.578125 31.484375 29.578125 L 34.484375 29.578125 C 34.632812 29.578125 34.78125 29.597656 34.925781 29.636719 C 36.253906 29.988281 36.921875 31.105469 36.921875 32.941406 L 36.921875 40.175781 C 36.921875 41.667969 36.640625 42.464844 35.984375 42.984375 L 37.539062 45.691406 L 35.703125 45.691406 L 34.445312 43.503906 L 33.175781 43.65625 L 31.484375 43.65625 C 31.195312 43.65625 30.890625 43.578125 30.554688 43.402344 C 29.546875 42.875 29.0625 41.859375 29.0625 40.175781 Z M 30.769531 39.996094 C 30.769531 40.09375 30.785156 40.191406 30.796875 40.308594 C 30.890625 41.148438 31.300781 41.617188 31.921875 41.617188 L 33.359375 41.617188 L 32.039062 39.324219 L 33.878906 39.324219 L 35.027344 41.324219 C 35.238281 41.109375 35.378906 40.777344 35.425781 40.347656 C 35.4375 40.25 35.4375 40.152344 35.4375 40.054688 L 35.4375 33.117188 C 35.4375 33.039062 35.4375 32.9375 35.425781 32.84375 C 35.332031 32.0625 34.921875 31.613281 34.3125 31.613281 L 31.925781 31.613281 C 31.222656 31.613281 30.769531 32.199219 30.769531 33.117188 L 30.769531 40 Z M 30.769531 39.996094 "/>
<path style=" stroke:none;fill-rule:nonzero;fill:rgb(0%,38.039216%,54.11765%);fill-opacity:1;" d="M 46.316406 26.1875 C 45.347656 26.136719 44.601562 26.308594 43.96875 26.824219 C 43.789062 26.972656 43.5 26.976562 43.472656 27.410156 C 43.570312 27.609375 43.585938 27.910156 43.664062 28.15625 C 43.816406 28.628906 44.074219 29.261719 44.300781 29.589844 C 44.550781 29.953125 44.804688 30.339844 45.074219 30.65625 C 45.550781 31.214844 46.082031 31.535156 46.539062 32.09375 C 46.808594 32.421875 47.078125 32.835938 47.339844 33.210938 C 47.472656 33.394531 47.558594 33.679688 47.726562 33.792969 L 47.726562 33.742188 C 47.636719 33.523438 47.617188 33.222656 47.535156 32.996094 L 47.175781 32.304688 C 46.824219 31.402344 46.378906 30.621094 45.902344 29.964844 C 45.527344 29.441406 44.679688 28.734375 44.519531 27.890625 L 44.492188 27.835938 C 44.761719 27.777344 45.074219 27.589844 45.324219 27.464844 C 45.738281 27.25 46.109375 27.304688 46.539062 27.089844 L 47.121094 26.773438 L 47.121094 26.558594 C 46.902344 26.128906 46.75 25.5625 46.511719 25.175781 C 45.894531 24.160156 45.21875 23.148438 44.523438 22.300781 C 44.136719 21.832031 43.660156 21.527344 43.25 21.132812 C 43.113281 20.996094 42.871094 20.929688 42.78125 20.707031 C 42.566406 20.179688 42.449219 19.511719 42.285156 18.902344 C 41.9375 17.617188 41.597656 16.210938 41.289062 14.859375 C 41.078125 13.933594 40.941406 13.023438 40.679688 12.199219 C 39.425781 8.226562 38.074219 5.828125 35.980469 3.472656 C 35.535156 2.972656 35 2.773438 34.433594 2.515625 L 33.519531 2.410156 C 33.335938 2.257812 33.144531 1.820312 32.96875 1.609375 C 32.273438 0.765625 30.496094 -1.066406 29.984375 1.339844 C 29.660156 2.859375 30.46875 4.34375 30.757812 5.117188 C 30.960938 5.660156 31.21875 6.265625 31.363281 6.871094 C 31.460938 7.273438 31.476562 7.671875 31.558594 8.097656 C 31.757812 9.132812 31.933594 10.273438 32.195312 11.234375 C 32.324219 11.722656 32.46875 12.234375 32.636719 12.671875 C 32.738281 12.941406 32.914062 13.058594 32.941406 13.46875 C 32.769531 13.929688 32.761719 14.644531 32.664062 15.226562 C 32.230469 17.847656 32.394531 21.105469 33.023438 23.046875 C 33.214844 23.644531 33.671875 24.921875 34.292969 24.429688 C 34.839844 24.003906 34.714844 22.675781 34.875 21.503906 C 34.910156 21.238281 34.890625 21.042969 34.957031 20.867188 L 34.957031 20.917969 L 35.457031 22.835938 C 35.824219 23.976562 36.476562 25.167969 37.03125 25.972656 C 37.320312 26.390625 37.546875 27.113281 37.914062 27.359375 L 37.914062 27.304688 L 37.886719 27.304688 C 37.816406 27.085938 37.703125 27 37.613281 26.824219 C 37.394531 26.417969 37.15625 25.910156 36.976562 25.441406 C 36.472656 24.125 36.027344 22.6875 35.621094 21.1875 C 35.429688 20.46875 35.257812 19.679688 35.097656 18.953125 C 35.035156 18.671875 35.035156 18.246094 34.902344 18.101562 C 34.722656 18.636719 34.460938 19.066406 34.324219 19.695312 C 34.101562 20.703125 34.074219 21.933594 33.992188 23.207031 C 33.941406 23.242188 33.964844 23.21875 33.9375 23.261719 C 33.550781 23.082031 33.414062 22.320312 33.273438 21.664062 C 32.910156 20.011719 32.84375 17.34375 33.160156 15.441406 C 33.242188 14.949219 33.617188 13.394531 33.464844 12.941406 C 33.394531 12.484375 33.15625 12.21875 33.023438 11.875 C 32.859375 11.445312 32.695312 10.882812 32.582031 10.386719 C 32.285156 9.097656 32.148438 7.648438 31.835938 6.34375 C 31.6875 5.71875 31.433594 5.089844 31.226562 4.539062 C 30.996094 3.925781 30.742188 3.472656 30.5625 2.734375 C 30.5 2.46875 30.414062 2.046875 30.507812 1.777344 C 30.527344 1.617188 30.589844 1.492188 30.675781 1.457031 C 30.835938 1.21875 31.28125 1.535156 31.449219 1.667969 C 31.890625 2.023438 32.261719 2.363281 32.636719 2.839844 C 32.816406 3.066406 33 3.515625 33.21875 3.636719 L 33.464844 3.636719 C 33.855469 3.8125 34.289062 3.691406 34.652344 3.90625 C 35.296875 4.28125 35.871094 4.867188 36.394531 5.5 C 37.988281 7.4375 39.292969 10.195312 40.183594 13.484375 C 40.324219 14.015625 40.386719 14.519531 40.515625 15.082031 C 40.769531 16.210938 41.089844 17.378906 41.34375 18.488281 C 41.597656 19.59375 41.84375 20.707031 42.199219 21.625 C 42.386719 22.109375 43.113281 22.367188 43.445312 22.636719 C 43.675781 22.824219 44.054688 23.019531 44.273438 23.273438 C 44.691406 23.761719 45.097656 24.339844 45.488281 24.871094 C 45.6875 25.136719 46.289062 25.722656 46.320312 26.203125 Z M 46.316406 26.1875 "/>
<path style=" stroke:none;fill-rule:evenodd;fill:rgb(0%,38.039216%,54.11765%);fill-opacity:1;" d="M 33.964844 5.917969 C 33.761719 5.910156 33.617188 5.960938 33.464844 6.023438 L 33.464844 6.078125 L 33.492188 6.078125 C 33.589844 6.460938 33.761719 6.703125 33.878906 7.035156 L 34.15625 8.152344 L 34.183594 8.097656 C 34.355469 7.867188 34.433594 7.496094 34.433594 6.925781 C 34.363281 6.789062 34.355469 6.613281 34.292969 6.449219 C 34.214844 6.226562 34.058594 6.101562 33.960938 5.914062 Z M 33.964844 5.917969 "/>
<path style=" stroke:none;fill-rule:evenodd;fill:rgb(89.411765%,55.686277%,0%);fill-opacity:1;" d="M 45.667969 41.515625 C 45.667969 42.855469 46.21875 43.757812 46.835938 43.757812 C 47.449219 43.757812 48 42.855469 48 41.515625 C 48 40.175781 47.449219 39.273438 46.835938 39.273438 C 46.21875 39.273438 45.667969 40.175781 45.667969 41.515625 Z M 47.738281 41.515625 C 47.738281 42.53125 47.335938 43.292969 46.832031 43.292969 C 46.328125 43.292969 45.929688 42.53125 45.929688 41.515625 C 45.929688 40.5 46.328125 39.738281 46.832031 39.738281 C 47.335938 39.738281 47.738281 40.5 47.738281 41.515625 Z M 47.148438 42.796875 L 47.410156 42.796875 L 47.027344 41.671875 C 47.230469 41.628906 47.386719 41.4375 47.386719 40.972656 C 47.386719 40.449219 47.214844 40.234375 46.886719 40.234375 L 46.367188 40.234375 L 46.367188 42.796875 L 46.589844 42.796875 L 46.589844 41.6875 L 46.800781 41.6875 Z M 46.589844 41.328125 L 46.589844 40.59375 L 46.847656 40.59375 C 46.984375 40.59375 47.144531 40.640625 47.144531 40.941406 C 47.144531 41.300781 47 41.332031 46.832031 41.332031 L 46.589844 41.332031 Z M 46.589844 41.328125 "/>
</g>
</svg>
