<?xml version="1.0" encoding="UTF-8"?>
<svg xmlns="http://www.w3.org/2000/svg" xmlns:xlink="http://www.w3.org/1999/xlink" width="48px" height="48px" viewBox="0 0 48 48" version="1.1">
<g id="surface1">
<path style=" stroke:none;fill-rule:nonzero;fill:rgb(100%,42.352942%,21.568628%);fill-opacity:1;" d="M 42.996094 9.328125 C 34.894531 -1.160156 19.820312 -3.097656 9.328125 5.003906 C -1.160156 13.109375 -3.097656 28.183594 5.007812 38.671875 C 13.113281 49.160156 28.183594 51.09375 38.675781 42.988281 C 49.160156 34.886719 51.09375 19.820312 42.996094 9.328125 Z M 42.996094 9.328125 "/>
<path style=" stroke:none;fill-rule:nonzero;fill:rgb(100%,100%,100%);fill-opacity:1;" d="M 32.09375 15.289062 L 21.976562 25.492188 L 19.117188 22.550781 C 29.074219 12.589844 30.074219 13.492188 32.09375 15.289062 Z M 32.09375 15.289062 "/>
<path style=" stroke:none;fill-rule:nonzero;fill:rgb(100%,42.352942%,21.568628%);fill-opacity:1;" d="M 21.976562 25.769531 C 21.886719 25.769531 21.800781 25.730469 21.734375 25.671875 L 18.855469 22.789062 C 18.71875 22.652344 18.71875 22.429688 18.855469 22.289062 C 28.675781 12.46875 30.015625 12.929688 32.335938 15.03125 C 32.414062 15.09375 32.457031 15.1875 32.453125 15.289062 C 32.46875 15.386719 32.433594 15.488281 32.355469 15.550781 L 22.234375 25.671875 C 22.164062 25.734375 22.070312 25.773438 21.976562 25.769531 Z M 19.613281 22.550781 L 21.976562 24.910156 L 31.574219 15.308594 C 30.890625 14.449219 29.664062 14.242188 28.734375 14.832031 C 26.996094 15.609375 24.195312 17.992188 19.613281 22.550781 Z M 19.613281 22.550781 "/>
<path style=" stroke:none;fill-rule:nonzero;fill:rgb(100%,100%,100%);fill-opacity:1;" d="M 24.875 28.3125 L 22.117188 25.492188 L 32.234375 15.492188 C 34.957031 18.152344 30.914062 22.589844 24.875 28.308594 Z M 24.875 28.3125 "/>
<path style=" stroke:none;fill-rule:nonzero;fill:rgb(100%,42.352942%,21.568628%);fill-opacity:1;" d="M 24.875 28.671875 C 24.785156 28.664062 24.703125 28.628906 24.636719 28.570312 L 21.816406 25.8125 C 21.773438 25.707031 21.773438 25.59375 21.816406 25.492188 C 21.785156 25.40625 21.785156 25.316406 21.816406 25.230469 L 31.933594 15.109375 C 32.082031 14.972656 32.308594 14.972656 32.453125 15.109375 C 33.117188 15.722656 33.480469 16.589844 33.453125 17.492188 C 33.453125 20.191406 30.375 23.589844 25.132812 28.550781 C 25.066406 28.621094 24.972656 28.664062 24.875 28.671875 Z M 22.636719 25.492188 L 24.894531 27.75 C 28.894531 23.96875 32.714844 20.070312 32.734375 17.429688 C 32.757812 16.871094 32.570312 16.320312 32.214844 15.890625 Z M 22.636719 25.492188 "/>
<path style=" stroke:none;fill-rule:nonzero;fill:rgb(100%,100%,100%);fill-opacity:1;" d="M 19.195312 22.609375 L 21.195312 24.609375 L 16.976562 25.691406 C 16.800781 25.730469 16.621094 25.644531 16.539062 25.488281 C 16.453125 25.328125 16.484375 25.132812 16.613281 25.011719 L 19.074219 22.570312 C 19.074219 22.570312 19.15625 22.570312 19.195312 22.609375 Z M 19.195312 22.609375 "/>
<path style=" stroke:none;fill-rule:nonzero;fill:rgb(100%,42.352942%,21.568628%);fill-opacity:1;" d="M 16.875 26.089844 C 16.605469 26.085938 16.355469 25.945312 16.214844 25.710938 C 16.058594 25.414062 16.113281 25.046875 16.355469 24.8125 L 18.796875 22.351562 C 18.976562 22.1875 19.253906 22.1875 19.433594 22.351562 L 21.433594 24.351562 C 21.554688 24.464844 21.601562 24.632812 21.554688 24.792969 C 21.511719 24.949219 21.378906 25.074219 21.214844 25.113281 L 16.996094 26.011719 Z M 19.117188 23.050781 L 16.855469 25.3125 L 20.597656 24.511719 Z M 19.296875 22.871094 Z M 19.296875 22.871094 "/>
<path style=" stroke:none;fill-rule:nonzero;fill:rgb(100%,100%,100%);fill-opacity:1;" d="M 37.476562 9.671875 C 36.027344 8.273438 33.753906 8.214844 32.234375 9.535156 C 30.71875 10.851562 30.457031 13.113281 31.640625 14.742188 C 32.820312 16.367188 35.050781 16.824219 36.777344 15.789062 L 34.054688 13.070312 Z M 37.476562 9.671875 "/>
<path style=" stroke:none;fill-rule:nonzero;fill:rgb(100%,42.352942%,21.568628%);fill-opacity:1;" d="M 34.773438 16.710938 C 33.074219 16.6875 31.550781 15.652344 30.910156 14.078125 C 30.261719 12.503906 30.621094 10.699219 31.808594 9.492188 C 33.472656 7.855469 36.140625 7.855469 37.808594 9.492188 C 37.882812 9.554688 37.929688 9.648438 37.929688 9.75 C 37.929688 9.851562 37.882812 9.945312 37.808594 10.011719 L 34.566406 13.070312 L 37.027344 15.492188 C 37.109375 15.570312 37.148438 15.679688 37.128906 15.792969 C 37.117188 15.898438 37.058594 15.992188 36.96875 16.050781 C 36.308594 16.464844 35.546875 16.691406 34.769531 16.710938 Z M 34.773438 8.949219 C 33.351562 8.957031 32.074219 9.816406 31.539062 11.125 C 31.003906 12.433594 31.296875 13.941406 32.296875 14.949219 C 33.3125 15.972656 34.847656 16.265625 36.175781 15.691406 L 33.816406 13.328125 C 33.738281 13.265625 33.691406 13.171875 33.695312 13.070312 C 33.699219 12.976562 33.742188 12.886719 33.816406 12.828125 L 36.933594 9.6875 C 36.316406 9.214844 35.558594 8.953125 34.773438 8.949219 Z M 34.773438 8.949219 "/>
<path style=" stroke:none;fill-rule:nonzero;fill:rgb(100%,100%,100%);fill-opacity:1;" d="M 37.535156 9.730469 L 34.117188 13.128906 L 36.835938 15.851562 C 37.109375 15.691406 37.363281 15.503906 37.59375 15.289062 C 39.078125 13.714844 39.050781 11.265625 37.535156 9.730469 Z M 37.535156 9.730469 "/>
<path style=" stroke:none;fill-rule:nonzero;fill:rgb(100%,42.352942%,21.568628%);fill-opacity:1;" d="M 36.773438 16.152344 C 36.683594 16.15625 36.59375 16.117188 36.535156 16.050781 L 33.816406 13.332031 C 33.734375 13.265625 33.691406 13.171875 33.695312 13.070312 C 33.699219 12.976562 33.742188 12.890625 33.816406 12.832031 L 37.214844 9.492188 C 37.28125 9.390625 37.394531 9.328125 37.515625 9.328125 C 37.636719 9.328125 37.746094 9.390625 37.8125 9.492188 C 38.621094 10.28125 39.074219 11.363281 39.074219 12.492188 C 39.074219 13.621094 38.621094 14.699219 37.8125 15.492188 C 37.578125 15.738281 37.308594 15.957031 37.015625 16.128906 C 36.941406 16.167969 36.855469 16.175781 36.773438 16.152344 Z M 34.574219 13.070312 L 36.835938 15.332031 C 36.988281 15.222656 37.136719 15.101562 37.273438 14.972656 C 37.9375 14.308594 38.3125 13.410156 38.316406 12.472656 C 38.316406 11.632812 38.011719 10.820312 37.453125 10.191406 Z M 34.574219 13.070312 "/>
<path style=" stroke:none;fill-rule:nonzero;fill:rgb(100%,100%,100%);fill-opacity:1;" d="M 32.515625 15.710938 C 31.953125 15.183594 31.078125 15.183594 30.515625 15.710938 L 21.457031 24.75 L 22.957031 26.269531 L 32.535156 17.871094 C 32.832031 17.585938 32.996094 17.195312 32.992188 16.785156 C 32.988281 16.375 32.816406 15.988281 32.515625 15.710938 Z M 32.515625 15.710938 "/>
<path style=" stroke:none;fill-rule:nonzero;fill:rgb(100%,42.352942%,21.568628%);fill-opacity:1;" d="M 22.875 26.632812 C 22.785156 26.628906 22.699219 26.59375 22.636719 26.53125 L 21.113281 25.011719 C 20.980469 24.871094 20.980469 24.648438 21.113281 24.511719 L 30.175781 15.492188 C 30.894531 14.773438 32.058594 14.773438 32.773438 15.492188 C 33.136719 15.851562 33.328125 16.339844 33.316406 16.851562 C 33.292969 17.355469 33.070312 17.832031 32.695312 18.171875 L 23.113281 26.570312 C 23.046875 26.621094 22.960938 26.640625 22.875 26.628906 Z M 21.816406 24.75 L 22.816406 25.769531 L 32.214844 17.589844 C 32.445312 17.386719 32.585938 17.097656 32.59375 16.789062 C 32.605469 16.480469 32.484375 16.179688 32.253906 15.96875 C 31.816406 15.535156 31.113281 15.535156 30.675781 15.96875 Z M 21.816406 24.75 "/>
<path style=" stroke:none;fill-rule:nonzero;fill:rgb(100%,100%,100%);fill-opacity:1;" d="M 14.433594 35.050781 L 14.835938 37.03125 C 14.871094 37.238281 14.769531 37.445312 14.585938 37.554688 C 14.402344 37.664062 14.171875 37.640625 14.015625 37.496094 L 11.273438 34.859375 L 19.816406 26.25 L 22.773438 26.25 L 24.777344 28.25 C 21.65625 30.976562 18.175781 33.265625 14.433594 35.050781 Z M 14.433594 35.050781 "/>
<path style=" stroke:none;fill-rule:nonzero;fill:rgb(100%,42.352942%,21.568628%);fill-opacity:1;" d="M 14.253906 37.992188 C 14.027344 37.984375 13.804688 37.894531 13.65625 37.730469 L 11.035156 35.109375 C 10.957031 35.046875 10.914062 34.953125 10.914062 34.851562 C 10.917969 34.757812 10.960938 34.667969 11.035156 34.609375 L 19.636719 25.992188 L 22.792969 25.890625 C 22.871094 25.863281 22.957031 25.863281 23.035156 25.890625 L 25.035156 27.890625 C 25.113281 27.960938 25.148438 28.066406 25.132812 28.171875 C 25.136719 28.269531 25.09375 28.367188 25.015625 28.429688 L 24.855469 28.570312 C 21.722656 31.183594 18.277344 33.394531 14.59375 35.152344 L 14.976562 36.769531 C 15.035156 37.023438 14.976562 37.289062 14.816406 37.496094 C 14.660156 37.703125 14.414062 37.824219 14.15625 37.832031 Z M 11.816406 34.851562 L 14.175781 37.230469 L 13.933594 35.351562 C 13.871094 35.09375 13.996094 34.824219 14.234375 34.710938 C 17.816406 32.976562 21.175781 30.8125 24.234375 28.269531 L 22.59375 26.628906 L 19.914062 26.628906 Z M 14.695312 35.210938 Z M 14.695312 35.210938 "/>
<path style=" stroke:none;fill-rule:nonzero;fill:rgb(100%,100%,100%);fill-opacity:1;" d="M 9.214844 36.910156 L 11.214844 34.910156 L 14.296875 37.992188 L 9.394531 37.652344 C 9.222656 37.636719 9.078125 37.515625 9.035156 37.347656 C 8.996094 37.175781 9.066406 37 9.214844 36.910156 Z M 9.214844 36.910156 "/>
<path style=" stroke:none;fill-rule:nonzero;fill:rgb(100%,42.352942%,21.568628%);fill-opacity:1;" d="M 14.355469 38.289062 L 9.476562 37.949219 C 9.183594 37.921875 8.9375 37.726562 8.835938 37.460938 C 8.730469 37.195312 8.792969 36.882812 8.996094 36.671875 L 10.996094 34.671875 C 11.132812 34.535156 11.355469 34.535156 11.496094 34.671875 L 14.554688 37.730469 C 14.640625 37.851562 14.640625 38.011719 14.554688 38.128906 C 14.507812 38.203125 14.4375 38.261719 14.355469 38.289062 Z M 9.476562 37.171875 L 13.472656 37.429688 L 11.273438 35.371094 Z M 9.476562 37.171875 "/>
<path style=" stroke:none;fill-rule:nonzero;fill:rgb(100%,100%,100%);fill-opacity:1;" d="M 23.054688 26.492188 L 19.015625 27.113281 L 21.355469 24.792969 Z M 23.054688 26.492188 "/>
<path style=" stroke:none;fill-rule:nonzero;fill:rgb(100%,42.352942%,21.568628%);fill-opacity:1;" d="M 19.015625 27.492188 C 18.878906 27.496094 18.753906 27.414062 18.695312 27.289062 C 18.605469 27.171875 18.605469 27.007812 18.695312 26.890625 L 21.015625 24.550781 C 21.160156 24.414062 21.386719 24.414062 21.535156 24.550781 L 23.234375 26.25 C 23.304688 26.359375 23.304688 26.5 23.234375 26.609375 C 23.199219 26.746094 23.089844 26.847656 22.957031 26.871094 L 18.957031 27.492188 Z M 21.355469 25.308594 L 20.054688 26.609375 L 22.296875 26.269531 Z M 21.355469 25.308594 "/>
<path style=" stroke:none;fill-rule:nonzero;fill:rgb(100%,100%,100%);fill-opacity:1;" d="M 23.054688 26.488281 L 20.234375 26.851562 C 20.078125 26.886719 19.921875 26.816406 19.84375 26.675781 C 19.765625 26.539062 19.785156 26.363281 19.894531 26.25 L 21.355469 24.789062 Z M 23.054688 26.488281 "/>
<path style=" stroke:none;fill-rule:nonzero;fill:rgb(100%,42.352942%,21.568628%);fill-opacity:1;" d="M 20.15625 27.230469 C 19.886719 27.230469 19.644531 27.082031 19.515625 26.851562 C 19.359375 26.570312 19.40625 26.21875 19.636719 25.992188 L 21.09375 24.53125 C 21.242188 24.394531 21.46875 24.394531 21.613281 24.53125 L 23.316406 26.230469 C 23.417969 26.328125 23.453125 26.476562 23.40625 26.613281 C 23.359375 26.746094 23.238281 26.839844 23.09375 26.851562 L 20.296875 27.210938 Z M 20.15625 26.492188 L 22.273438 26.230469 L 21.335938 25.289062 L 20.136719 26.492188 Z M 37.554688 12.03125 C 37.476562 11.898438 37.3125 11.847656 37.175781 11.910156 C 37.011719 12.148438 37.019531 12.222656 37.054688 12.289062 C 37.195312 12.585938 37.15625 12.933594 36.953125 13.191406 C 36.902344 13.242188 36.878906 13.308594 36.878906 13.378906 C 37.210938 13.59375 37.308594 13.5625 37.375 13.492188 C 37.710938 13.078125 37.78125 12.511719 37.554688 12.03125 Z M 37.554688 12.03125 "/>
</g>
</svg>
