<?xml version="1.0" encoding="UTF-8"?>
<svg xmlns="http://www.w3.org/2000/svg" xmlns:xlink="http://www.w3.org/1999/xlink" width="48px" height="48px" viewBox="0 0 48 48" version="1.1">
<g id="surface1">
<path style=" stroke:none;fill-rule:nonzero;fill:rgb(42.745098%,70.19608%,24.705882%);fill-opacity:1;" d="M 47.089844 21.117188 L 37.75 2.882812 C 36.941406 1.300781 34.953125 0 33.328125 0 L 14.664062 0 C 13.046875 0 11.050781 1.300781 10.242188 2.882812 L 0.910156 21.117188 C 0.101562 22.699219 0.101562 25.289062 0.910156 26.871094 L 10.242188 45.117188 C 11.050781 46.699219 13.039062 48 14.664062 48 L 33.335938 48 C 34.953125 48 36.941406 46.699219 37.757812 45.117188 L 47.089844 26.871094 C 47.898438 25.289062 47.898438 22.699219 47.089844 21.117188 Z M 21.980469 10.085938 C 21.980469 8.890625 22.84375 7.917969 23.902344 7.917969 C 24.960938 7.917969 25.828125 8.890625 25.828125 10.085938 L 25.828125 23.054688 C 25.828125 24.25 24.960938 25.226562 23.902344 25.226562 C 22.84375 25.226562 21.980469 24.25 21.980469 23.054688 Z M 23.902344 37.777344 C 16.707031 37.777344 10.855469 31.171875 10.855469 23.054688 C 10.863281 18.402344 12.816406 14.027344 16.125 11.238281 C 16.886719 10.601562 17.953125 10.777344 18.519531 11.636719 C 19.089844 12.496094 18.929688 13.703125 18.167969 14.34375 C 13.902344 17.917969 13.011719 24.722656 16.179688 29.535156 C 19.347656 34.347656 25.378906 35.355469 29.644531 31.78125 C 32.089844 29.734375 33.53125 26.496094 33.53125 23.054688 C 33.523438 19.605469 32.070312 16.367188 29.609375 14.3125 C 28.847656 13.683594 28.6875 12.464844 29.246094 11.605469 C 29.804688 10.746094 30.882812 10.570312 31.644531 11.199219 C 34.980469 13.976562 36.941406 18.378906 36.949219 23.054688 C 36.949219 31.183594 31.097656 37.777344 23.902344 37.777344 Z M 23.902344 37.777344 "/>
</g>
</svg>
