<?xml version="1.0" encoding="UTF-8"?>
<svg xmlns="http://www.w3.org/2000/svg" xmlns:xlink="http://www.w3.org/1999/xlink" width="48px" height="48px" viewBox="0 0 48 48" version="1.1">
<g id="surface1">
<path style=" stroke:none;fill-rule:nonzero;fill:rgb(42.745098%,70.19608%,24.705882%);fill-opacity:1;" d="M 7.300781 6.726562 C 16.785156 -2.460938 31.949219 -2.214844 41.136719 7.320312 C 42.175781 5.9375 43.0625 4.40625 43.707031 2.824219 C 46.71875 12.011719 48.546875 19.71875 47.855469 25.695312 C 47.507812 30.734375 45.53125 35.574219 42.273438 39.425781 C 33.777344 49.503906 18.664062 50.785156 8.585938 42.292969 L 8.394531 42.121094 L 8.382812 42.113281 C 8.351562 42.089844 8.320312 42.066406 8.289062 42.042969 C 8.199219 41.972656 8.113281 41.894531 8.039062 41.8125 L 8.011719 41.78125 L 7.695312 41.5 C 7.390625 41.238281 7.082031 40.972656 6.808594 40.675781 L 6.710938 40.5625 C -2.476562 31.078125 -2.183594 15.914062 7.300781 6.726562 Z M 10.859375 38.882812 C 9.96875 38.191406 8.683594 38.289062 7.992188 39.179688 C 7.386719 39.960938 7.386719 41.046875 8.003906 41.769531 L 8.011719 41.78125 L 8.394531 42.121094 L 8.429688 42.144531 C 9.292969 42.710938 10.457031 42.59375 11.117188 41.792969 L 11.15625 41.746094 C 11.847656 40.859375 11.699219 39.574219 10.859375 38.882812 Z M 43.457031 5.292969 C 40.988281 10.480469 34.863281 14.433594 29.578125 15.667969 C 24.589844 16.851562 20.242188 15.867188 15.648438 17.644531 C 5.179688 21.644531 5.375 34.089844 11.105469 36.90625 L 11.449219 37.105469 C 11.449219 37.105469 15.589844 36.28125 19.683594 35.195312 L 20.03125 35.101562 C 21.667969 34.660156 23.277344 34.179688 24.589844 33.695312 C 31.40625 31.175781 38.914062 24.953125 41.382812 17.742188 C 40.101562 25.25 33.628906 32.511719 27.160156 35.820312 C 23.699219 37.597656 21.035156 37.992188 15.351562 39.96875 C 14.660156 40.214844 14.117188 40.464844 14.117188 40.464844 C 14.1875 40.453125 14.257812 40.445312 14.324219 40.4375 L 14.464844 40.417969 L 14.601562 40.402344 C 15.855469 40.246094 16.984375 40.167969 16.984375 40.167969 C 25.035156 39.773438 37.679688 42.4375 43.558594 34.585938 C 49.582031 26.582031 46.222656 13.640625 43.457031 5.292969 Z M 43.457031 5.292969 "/>
<path style=" stroke:none;fill-rule:nonzero;fill:rgb(100%,100%,100%);fill-opacity:1;" d="M 10.859375 38.882812 C 11.699219 39.574219 11.847656 40.859375 11.15625 41.746094 C 10.464844 42.636719 9.179688 42.734375 8.289062 42.042969 C 7.402344 41.351562 7.300781 40.070312 7.992188 39.179688 C 8.683594 38.289062 9.96875 38.191406 10.859375 38.882812 Z M 43.457031 5.292969 C 46.222656 13.640625 49.582031 26.582031 43.558594 34.585938 C 37.679688 42.4375 25.035156 39.773438 16.984375 40.167969 C 16.984375 40.167969 15.855469 40.246094 14.601562 40.402344 L 14.464844 40.417969 C 14.347656 40.433594 14.234375 40.449219 14.117188 40.464844 C 14.117188 40.464844 14.660156 40.214844 15.351562 39.96875 C 21.035156 37.992188 23.699219 37.597656 27.160156 35.820312 C 33.628906 32.511719 40.101562 25.25 41.382812 17.742188 C 38.914062 24.953125 31.40625 31.175781 24.589844 33.695312 C 19.898438 35.425781 11.449219 37.105469 11.449219 37.105469 L 11.105469 36.90625 C 5.375 34.089844 5.179688 21.644531 15.648438 17.644531 C 20.242188 15.867188 24.589844 16.851562 29.578125 15.667969 C 34.863281 14.433594 40.988281 10.480469 43.457031 5.292969 Z M 43.457031 5.292969 "/>
</g>
</svg>
